<svg width="16" height="13" viewBox="0 0 16 13" fill="none" xmlns="http://www.w3.org/2000/svg">
<path fill-rule="evenodd" clip-rule="evenodd" d="M14.9702 5.3268H3.12877L6.75455 1.4559C7.10784 1.07947 7.04997 0.519293 6.62682 0.205895C6.20266 -0.10839 5.57389 -0.0569056 5.22159 0.319527L0.231537 5.6464C0.192614 5.68813 0.172665 5.73695 0.143723 5.78312C0.11977 5.82041 0.0908097 5.85239 0.0728455 5.89323C0.0279349 5.99533 0.00100708 6.10273 0.00100708 6.21104L0 6.21462L0.00100708 6.21814C0.00100708 6.32645 0.0279349 6.43391 0.0728455 6.536C0.0908097 6.57684 0.11977 6.60877 0.143723 6.64606C0.172665 6.69223 0.192614 6.74105 0.231537 6.78278L5.22159 12.1097C5.41919 12.3201 5.70264 12.4293 5.98807 12.4293C6.21362 12.4293 6.44019 12.3618 6.62682 12.2233C7.04997 11.9099 7.10784 11.3497 6.75455 10.9733L3.12877 7.10243H14.9702C15.5211 7.10243 15.9682 6.70469 15.9682 6.21462C15.9682 5.72454 15.5211 5.3268 14.9702 5.3268Z" fill="#050152"/>
</svg>
