<svg width="17" height="19" viewBox="0 0 17 19" fill="none" xmlns="http://www.w3.org/2000/svg">
<path fill-rule="evenodd" clip-rule="evenodd" d="M8.01194 15.0679L2.36755 17.9513C1.91689 18.1696 1.36168 18.0151 1.11323 17.602V17.602C1.04136 17.474 1.00258 17.3322 1 17.1878V4.41137C1 1.97467 2.78565 1 5.35525 1H11.3916C13.8828 1 15.7469 1.9097 15.7469 4.24892V17.1878C15.7469 17.4183 15.6487 17.6394 15.4739 17.8024C15.2991 17.9653 15.062 18.0569 14.8148 18.0569C14.6572 18.0545 14.5022 18.0184 14.3619 17.9513L8.68264 15.0679C8.47338 14.9624 8.2212 14.9624 8.01194 15.0679Z" stroke="#D8D8D8" stroke-linecap="round" stroke-linejoin="round"/>
<path d="M5.42407 6.79933H12.0602" stroke="#D8D8D8" stroke-linecap="round" stroke-linejoin="round"/>
</svg>
