<svg width="20" height="21" viewBox="0 0 20 21" fill="none" xmlns="http://www.w3.org/2000/svg">
<path fill-rule="evenodd" clip-rule="evenodd" d="M7.21036 18.6058V15.7295C7.21034 14.9978 7.80358 14.4034 8.53857 14.3985H11.2309C11.9694 14.3985 12.5681 14.9944 12.5681 15.7295V18.6147C12.5679 19.2359 13.0661 19.7435 13.6899 19.7581H15.4849C17.2741 19.7581 18.7246 18.3144 18.7246 16.5334V8.35114C18.7151 7.65052 18.3846 6.99259 17.8272 6.56461L11.6886 1.64274C10.6132 0.785752 9.08449 0.785752 8.00907 1.64274L1.89745 6.57355C1.33794 6.99979 1.00689 7.65881 1 8.36007V16.5334C1 18.3144 2.45051 19.7581 4.23979 19.7581H6.03469C6.67408 19.7581 7.1924 19.2421 7.1924 18.6058" fill="#D8D8D8"/>
<path d="M7.21036 18.6058V15.7295C7.21034 14.9978 7.80358 14.4034 8.53857 14.3985H11.2309C11.9694 14.3985 12.5681 14.9944 12.5681 15.7295V18.6147C12.5679 19.2359 13.0661 19.7435 13.6899 19.7581H15.4849C17.2741 19.7581 18.7246 18.3144 18.7246 16.5334V8.35114C18.7151 7.65052 18.3846 6.99259 17.8272 6.56461L11.6886 1.64274C10.6132 0.785752 9.08449 0.785752 8.00907 1.64274L1.89745 6.57355C1.33794 6.99979 1.00689 7.65881 1 8.36007V16.5334C1 18.3144 2.45051 19.7581 4.23979 19.7581H6.03469C6.67408 19.7581 7.1924 19.2421 7.1924 18.6058" stroke="#D8D8D8" stroke-linecap="round" stroke-linejoin="round"/>
</svg>
