<svg width="15" height="19" viewBox="0 0 15 19" fill="none" xmlns="http://www.w3.org/2000/svg">
<circle cx="7.69499" cy="5.01701" r="4.01701" stroke="#D8D8D8" stroke-linecap="round" stroke-linejoin="round"/>
<path fill-rule="evenodd" clip-rule="evenodd" d="M1.00001 15.0572C0.998874 14.7592 1.06527 14.4649 1.19419 14.1964C1.59871 13.3844 2.73947 12.954 3.68605 12.7591C4.36873 12.6129 5.06084 12.5152 5.75722 12.4668C7.04648 12.3531 8.34323 12.3531 9.63255 12.4668C10.3289 12.5158 11.021 12.6135 11.7038 12.7591C12.6503 12.954 13.7911 13.3438 14.1956 14.1964C14.4549 14.7436 14.4549 15.3789 14.1956 15.9261C13.7911 16.7787 12.6503 17.1684 11.7038 17.3553C11.0218 17.5075 10.3295 17.6079 9.63255 17.6556C8.5832 17.745 7.52891 17.7612 6.47726 17.7044C6.23455 17.7044 5.99993 17.7044 5.75722 17.6556C5.06289 17.6085 4.37319 17.5081 3.69414 17.3553C2.73947 17.1684 1.6068 16.7787 1.19419 15.9261C1.06593 15.6545 0.999599 15.3577 1.00001 15.0572Z" stroke="#D8D8D8" stroke-linecap="round" stroke-linejoin="round"/>
</svg>
