<svg width="25" height="19" viewBox="0 0 25 19" fill="none" xmlns="http://www.w3.org/2000/svg">
<path d="M14.2384 1.53577V4.11562" stroke="#D8D8D8" stroke-linecap="round" stroke-linejoin="round"/>
<path d="M14.2384 15.9379V18.0956" stroke="#D8D8D8" stroke-linecap="round" stroke-linejoin="round"/>
<path d="M14.2384 12.2755V7.13605" stroke="#D8D8D8" stroke-linecap="round" stroke-linejoin="round"/>
<path fill-rule="evenodd" clip-rule="evenodd" d="M19.8289 18.3258C21.9282 18.3258 23.6285 16.7721 23.6285 14.8537V12.09C22.2394 12.09 21.1207 11.0678 21.1207 9.79842C21.1207 8.52917 22.2394 7.50575 23.6285 7.50575L23.6273 4.74091C23.6273 2.82264 21.9258 1.26892 19.8278 1.26892H4.38712C2.28911 1.26892 0.587624 2.82264 0.587624 4.74091L0.586426 7.59579C1.97548 7.59579 3.09418 8.52917 3.09418 9.79842C3.09418 11.0678 1.97548 12.09 0.586426 12.09V14.8537C0.586426 16.7721 2.2867 18.3258 4.38591 18.3258H19.8289Z" stroke="#D8D8D8" stroke-linecap="round" stroke-linejoin="round"/>
</svg>
